<svg width="21" height="17" viewBox="0 0 21 17" fill="none" xmlns="http://www.w3.org/2000/svg">
<path opacity="0.3" d="M1 4.42857C1 3.22845 1 2.6284 1.2301 2.17002C1.43249 1.76681 1.75545 1.439 2.15269 1.23356C2.60428 1 3.19545 1 4.37778 1H8.04533C8.56168 1 8.81987 1 9.06286 1.05921C9.27819 1.1117 9.48413 1.19828 9.67308 1.31577C9.88609 1.44829 10.0687 1.63359 10.4338 2.00421L10.5662 2.13865C10.9313 2.50927 11.1139 2.69457 11.3269 2.82709C11.5159 2.94458 11.7218 3.03116 11.9371 3.08365C12.1801 3.14286 12.4383 3.14286 12.9547 3.14286H16.6222C17.8045 3.14286 18.3958 3.14286 18.8473 3.37642C19.2445 3.58185 19.5675 3.90967 19.7699 4.31288C20 4.77126 20 5.37132 20 6.57143V12.5714C20 13.7715 20 14.3716 19.7699 14.83C19.5675 15.2332 19.2445 15.561 18.8473 15.7664C18.3958 16 17.8045 16 16.6222 16H4.37778C3.19544 16 2.60428 16 2.15269 15.7664C1.75545 15.561 1.43249 15.2332 1.2301 14.83C1 14.3716 1 13.7715 1 12.5714V4.42857Z" stroke="black" stroke-linecap="round" stroke-linejoin="round"/>
</svg>
