<svg width="14" height="14" viewBox="0 0 14 14" fill="none" xmlns="http://www.w3.org/2000/svg">
<g opacity="0.3" clip-path="url(#clip0_246_721)">
<path fill-rule="evenodd" clip-rule="evenodd" d="M4.08398 0.583496C3.76184 0.583496 3.50065 0.844684 3.50065 1.16683V3.50016H1.16732C0.845172 3.50016 0.583984 3.76135 0.583984 4.0835C0.583984 4.40564 0.845172 4.66683 1.16732 4.66683H3.50065V9.3335H1.16732C0.845172 9.3335 0.583984 9.59471 0.583984 9.91683C0.583984 10.2389 0.845172 10.5002 1.16732 10.5002H3.50065V12.8335C3.50065 13.1556 3.76184 13.4168 4.08398 13.4168C4.40613 13.4168 4.66732 13.1556 4.66732 12.8335V10.5002H9.33399V12.8335C9.33399 13.1556 9.5952 13.4168 9.91732 13.4168C10.2394 13.4168 10.5007 13.1556 10.5007 12.8335V10.5002H12.834C13.1561 10.5002 13.4173 10.2389 13.4173 9.91683C13.4173 9.59471 13.1561 9.3335 12.834 9.3335H10.5007V4.66683H12.834C13.1561 4.66683 13.4173 4.40564 13.4173 4.0835C13.4173 3.76135 13.1561 3.50016 12.834 3.50016H10.5007V1.16683C10.5007 0.844684 10.2394 0.583496 9.91732 0.583496C9.5952 0.583496 9.33399 0.844684 9.33399 1.16683V3.50016H4.66732V1.16683C4.66732 0.844684 4.40613 0.583496 4.08398 0.583496ZM4.66732 4.66683V9.3335H9.33399V4.66683H4.66732Z" fill="#0F0F0F"/>
</g>
<defs>
<clipPath id="clip0_246_721">
<rect width="14" height="14" fill="white"/>
</clipPath>
</defs>
</svg>
